# xmcd
#
# Track frame offsets:
#	150
#	5538
#	14153
#	30859
#	34158
#	57569
#	88000
#	113072
#	136020
#	159456
#	180549
#	198331
#	228756
#	251422
#
# Disc length: 3643 seconds
#
# Revision: 0
# Processed by: cddbd v1.5.2PL0 Copyright (c) Steve Scherf et al.
# Submitted via: dBpowerAMP V4.0
#
DISCID=a80e390e
DTITLE=Hot Tuna - December, 12th, 1990, The Blind Pig, Ann Arbor, MI, disc 01
DYEAR=1990
DGENRE=Blues
TTITLE0=01 Tutti Frutti
TTITLE1=02 Flying Saucers Rock And Roll
TTITLE2=03 Big Boss Man
TTITLE3=04 Folsom Prison
TTITLE4=05 Walkin' Blues
TTITLE5=06 I See The Light
TTITLE6=07 Key To Highway
TTITLE7=08 99 Year Blues
TTITLE8=09 Third Week In The Chelsea
TTITLE9=10 AK-47
TTITLE10=11 It's Just My Way
TTITLE11=12 Death Don't Have No Mercy
TTITLE12=13 Baby What You Want Me To Do
TTITLE13=14 Folsom Prison
EXTD=
EXTT0=
EXTT1=
EXTT2=
EXTT3=
EXTT4=
EXTT5=
EXTT6=
EXTT7=
EXTT8=
EXTT9=
EXTT10=
EXTT11=
EXTT12=
EXTT13=
PLAYORDER=
